<?xml version="1.0" encoding="UTF-8" standalone="no"?>
<!DOCTYPE svg PUBLIC "-//W3C//DTD SVG 1.1//EN"
 "http://www.w3.org/Graphics/SVG/1.1/DTD/svg11.dtd">
<!-- Generated by graphviz version 2.40.1 (20161225.0304)
 -->
<!-- Title: dependencies Pages: 1 -->
<svg width="1129pt" height="211pt"
 viewBox="0.00 0.00 1129.00 211.00" xmlns="http://www.w3.org/2000/svg" xmlns:xlink="http://www.w3.org/1999/xlink">
<g id="graph0" class="graph" transform="scale(1 1) rotate(0) translate(4 207)">
<title>dependencies</title>
<polygon fill="#ffffff" stroke="transparent" points="-4,4 -4,-207 1125,-207 1125,4 -4,4"/>
<text text-anchor="start" x="539.5091" y="-42.4" font-family="sans-serif" font-weight="bold" font-size="14.00" fill="#000000">Legend</text>
<polygon fill="#ffffb3" stroke="transparent" points="326.5,-10 326.5,-30 346.5,-30 346.5,-10 326.5,-10"/>
<text text-anchor="start" x="350.129" y="-15.4" font-family="sans-serif" font-size="14.00" fill="#000000"> &#160;Declarations</text>
<polygon fill="#8dd3c7" stroke="transparent" points="439.5,-10 439.5,-30 459.5,-30 459.5,-10 439.5,-10"/>
<text text-anchor="start" x="463.2251" y="-15.4" font-family="sans-serif" font-size="14.00" fill="#000000"> &#160;Module</text>
<polygon fill="#80b1d3" stroke="transparent" points="525.5,-10 525.5,-30 545.5,-30 545.5,-10 525.5,-10"/>
<text text-anchor="start" x="549.2812" y="-15.4" font-family="sans-serif" font-size="14.00" fill="#000000"> &#160;Bootstrap</text>
<polygon fill="#fdb462" stroke="transparent" points="622.5,-10 622.5,-30 642.5,-30 642.5,-10 622.5,-10"/>
<text text-anchor="start" x="646.1732" y="-15.4" font-family="sans-serif" font-size="14.00" fill="#000000"> &#160;Providers</text>
<polygon fill="#fb8072" stroke="transparent" points="718.5,-10 718.5,-30 738.5,-30 738.5,-10 718.5,-10"/>
<text text-anchor="start" x="742.2258" y="-15.4" font-family="sans-serif" font-size="14.00" fill="#000000"> &#160;Exports</text>
<g id="clust1" class="cluster">
<title>cluster_AuthModule</title>
<polygon fill="none" stroke="#000000" stroke-dasharray="1,5" points="8,-70 8,-195 1113,-195 1113,-70 8,-70"/>
</g>
<g id="clust2" class="cluster">
<title>cluster_AuthModule_declarations</title>
<polygon fill="none" stroke="#000000" points="289,-78 289,-130 1105,-130 1105,-78 289,-78"/>
</g>
<g id="clust8" class="cluster">
<title>cluster_AuthModule_imports</title>
<polygon fill="none" stroke="#000000" points="16,-78 16,-130 281,-130 281,-78 16,-78"/>
</g>
<!-- ForgotPasswordComponent -->
<g id="node1" class="node">
<title>ForgotPasswordComponent</title>
<polygon fill="#ffffb3" stroke="#000000" points="1097.3201,-122 924.6799,-122 924.6799,-86 1097.3201,-86 1097.3201,-122"/>
<text text-anchor="middle" x="1011" y="-99.8" font-family="Times,serif" font-size="14.00" fill="#000000">ForgotPasswordComponent</text>
</g>
<!-- AuthModule -->
<g id="node6" class="node">
<title>AuthModule</title>
<polygon fill="#8dd3c7" stroke="#000000" points="570.5482,-187 567.5482,-191 546.5482,-191 543.5482,-187 483.4518,-187 483.4518,-151 570.5482,-151 570.5482,-187"/>
<text text-anchor="middle" x="527" y="-164.8" font-family="Times,serif" font-size="14.00" fill="#000000">AuthModule</text>
</g>
<!-- ForgotPasswordComponent&#45;&gt;AuthModule -->
<g id="edge1" class="edge">
<title>ForgotPasswordComponent&#45;&gt;AuthModule</title>
<path fill="none" stroke="#000000" d="M1011,-122.2921C1011,-144.2057 1011,-178 1011,-178 1011,-178 580.8054,-178 580.8054,-178"/>
<polygon fill="#000000" stroke="#000000" points="580.8054,-174.5001 570.8054,-178 580.8054,-181.5001 580.8054,-174.5001"/>
</g>
<!-- LogInComponent -->
<g id="node2" class="node">
<title>LogInComponent</title>
<polygon fill="#ffffb3" stroke="#000000" points="906.5465,-122 791.4535,-122 791.4535,-86 906.5465,-86 906.5465,-122"/>
<text text-anchor="middle" x="849" y="-99.8" font-family="Times,serif" font-size="14.00" fill="#000000">LogInComponent</text>
</g>
<!-- LogInComponent&#45;&gt;AuthModule -->
<g id="edge2" class="edge">
<title>LogInComponent&#45;&gt;AuthModule</title>
<path fill="none" stroke="#000000" d="M849,-122.1061C849,-141.3391 849,-169 849,-169 849,-169 580.7615,-169 580.7615,-169"/>
<polygon fill="#000000" stroke="#000000" points="580.7615,-165.5001 570.7615,-169 580.7614,-172.5001 580.7615,-165.5001"/>
</g>
<!-- ResetPasswordComponent -->
<g id="node3" class="node">
<title>ResetPasswordComponent</title>
<polygon fill="#ffffb3" stroke="#000000" points="773.087,-122 606.913,-122 606.913,-86 773.087,-86 773.087,-122"/>
<text text-anchor="middle" x="690" y="-99.8" font-family="Times,serif" font-size="14.00" fill="#000000">ResetPasswordComponent</text>
</g>
<!-- ResetPasswordComponent&#45;&gt;AuthModule -->
<g id="edge3" class="edge">
<title>ResetPasswordComponent&#45;&gt;AuthModule</title>
<path fill="none" stroke="#000000" d="M690,-122.027C690,-138.3976 690,-160 690,-160 690,-160 580.681,-160 580.681,-160"/>
<polygon fill="#000000" stroke="#000000" points="580.681,-156.5001 570.681,-160 580.681,-163.5001 580.681,-156.5001"/>
</g>
<!-- SignUpComponent -->
<g id="node4" class="node">
<title>SignUpComponent</title>
<polygon fill="#ffffb3" stroke="#000000" points="589.1123,-122 464.8877,-122 464.8877,-86 589.1123,-86 589.1123,-122"/>
<text text-anchor="middle" x="527" y="-99.8" font-family="Times,serif" font-size="14.00" fill="#000000">SignUpComponent</text>
</g>
<!-- SignUpComponent&#45;&gt;AuthModule -->
<g id="edge4" class="edge">
<title>SignUpComponent&#45;&gt;AuthModule</title>
<path fill="none" stroke="#000000" d="M527,-122.1061C527,-122.1061 527,-140.991 527,-140.991"/>
<polygon fill="#000000" stroke="#000000" points="523.5001,-140.9909 527,-150.991 530.5001,-140.991 523.5001,-140.9909"/>
</g>
<!-- SocialLoginComponent -->
<g id="node5" class="node">
<title>SocialLoginComponent</title>
<polygon fill="#ffffb3" stroke="#000000" points="446.7688,-122 297.2312,-122 297.2312,-86 446.7688,-86 446.7688,-122"/>
<text text-anchor="middle" x="372" y="-99.8" font-family="Times,serif" font-size="14.00" fill="#000000">SocialLoginComponent</text>
</g>
<!-- SocialLoginComponent&#45;&gt;AuthModule -->
<g id="edge5" class="edge">
<title>SocialLoginComponent&#45;&gt;AuthModule</title>
<path fill="none" stroke="#000000" d="M372,-122.027C372,-138.3976 372,-160 372,-160 372,-160 473.4114,-160 473.4114,-160"/>
<polygon fill="#000000" stroke="#000000" points="473.4114,-163.5001 483.4114,-160 473.4113,-156.5001 473.4114,-163.5001"/>
</g>
<!-- AuthRoutingModule -->
<g id="node7" class="node">
<title>AuthRoutingModule</title>
<polygon fill="#8dd3c7" stroke="#000000" points="273.1652,-122 270.1652,-126 249.1652,-126 246.1652,-122 140.8348,-122 140.8348,-86 273.1652,-86 273.1652,-122"/>
<text text-anchor="middle" x="207" y="-99.8" font-family="Times,serif" font-size="14.00" fill="#000000">AuthRoutingModule</text>
</g>
<!-- AuthRoutingModule&#45;&gt;AuthModule -->
<g id="edge6" class="edge">
<title>AuthRoutingModule&#45;&gt;AuthModule</title>
<path fill="none" stroke="#000000" d="M207,-122.1061C207,-141.3391 207,-169 207,-169 207,-169 473.1763,-169 473.1763,-169"/>
<polygon fill="#000000" stroke="#000000" points="473.1764,-172.5001 483.1763,-169 473.1763,-165.5001 473.1764,-172.5001"/>
</g>
<!-- SharedModule -->
<g id="node8" class="node">
<title>SharedModule</title>
<polygon fill="#8dd3c7" stroke="#000000" points="122.4231,-122 119.4231,-126 98.4231,-126 95.4231,-122 23.5769,-122 23.5769,-86 122.4231,-86 122.4231,-122"/>
<text text-anchor="middle" x="73" y="-99.8" font-family="Times,serif" font-size="14.00" fill="#000000">SharedModule</text>
</g>
<!-- SharedModule&#45;&gt;AuthModule -->
<g id="edge7" class="edge">
<title>SharedModule&#45;&gt;AuthModule</title>
<path fill="none" stroke="#000000" d="M73,-122.2921C73,-144.2057 73,-178 73,-178 73,-178 473.0561,-178 473.0561,-178"/>
<polygon fill="#000000" stroke="#000000" points="473.0561,-181.5001 483.0561,-178 473.056,-174.5001 473.0561,-181.5001"/>
</g>
</g>
</svg>
