<?xml version="1.0" encoding="UTF-8" standalone="no"?>
<!DOCTYPE svg PUBLIC "-//W3C//DTD SVG 1.1//EN"
 "http://www.w3.org/Graphics/SVG/1.1/DTD/svg11.dtd">
<!-- Generated by graphviz version 2.40.1 (20161225.0304)
 -->
<!-- Title: dependencies Pages: 1 -->
<svg width="1731pt" height="284pt"
 viewBox="0.00 0.00 1731.00 284.00" xmlns="http://www.w3.org/2000/svg" xmlns:xlink="http://www.w3.org/1999/xlink">
<g id="graph0" class="graph" transform="scale(1 1) rotate(0) translate(4 280)">
<title>dependencies</title>
<polygon fill="#ffffff" stroke="transparent" points="-4,4 -4,-280 1727,-280 1727,4 -4,4"/>
<text text-anchor="start" x="840.5091" y="-42.4" font-family="sans-serif" font-weight="bold" font-size="14.00" fill="#000000">Legend</text>
<polygon fill="#ffffb3" stroke="transparent" points="627.5,-10 627.5,-30 647.5,-30 647.5,-10 627.5,-10"/>
<text text-anchor="start" x="651.129" y="-15.4" font-family="sans-serif" font-size="14.00" fill="#000000"> &#160;Declarations</text>
<polygon fill="#8dd3c7" stroke="transparent" points="740.5,-10 740.5,-30 760.5,-30 760.5,-10 740.5,-10"/>
<text text-anchor="start" x="764.2251" y="-15.4" font-family="sans-serif" font-size="14.00" fill="#000000"> &#160;Module</text>
<polygon fill="#80b1d3" stroke="transparent" points="826.5,-10 826.5,-30 846.5,-30 846.5,-10 826.5,-10"/>
<text text-anchor="start" x="850.2812" y="-15.4" font-family="sans-serif" font-size="14.00" fill="#000000"> &#160;Bootstrap</text>
<polygon fill="#fdb462" stroke="transparent" points="923.5,-10 923.5,-30 943.5,-30 943.5,-10 923.5,-10"/>
<text text-anchor="start" x="947.1732" y="-15.4" font-family="sans-serif" font-size="14.00" fill="#000000"> &#160;Providers</text>
<polygon fill="#fb8072" stroke="transparent" points="1019.5,-10 1019.5,-30 1039.5,-30 1039.5,-10 1019.5,-10"/>
<text text-anchor="start" x="1043.2258" y="-15.4" font-family="sans-serif" font-size="14.00" fill="#000000"> &#160;Exports</text>
<g id="clust1" class="cluster">
<title>cluster_AppModule</title>
<polygon fill="none" stroke="#000000" stroke-dasharray="1,5" points="8,-70 8,-268 1715,-268 1715,-70 8,-70"/>
</g>
<g id="clust2" class="cluster">
<title>cluster_AppModule_declarations</title>
<polygon fill="none" stroke="#000000" points="1163,-78 1163,-130 1707,-130 1707,-78 1163,-78"/>
</g>
<g id="clust7" class="cluster">
<title>cluster_AppModule_imports</title>
<polygon fill="none" stroke="#000000" points="789,-78 789,-130 1155,-130 1155,-78 789,-78"/>
</g>
<g id="clust9" class="cluster">
<title>cluster_AppModule_bootstrap</title>
<polygon fill="none" stroke="#000000" points="839,-208 839,-260 963,-260 963,-208 839,-208"/>
</g>
<g id="clust10" class="cluster">
<title>cluster_AppModule_providers</title>
<polygon fill="none" stroke="#000000" points="16,-78 16,-130 781,-130 781,-78 16,-78"/>
</g>
<!-- AppComponent -->
<g id="node1" class="node">
<title>AppComponent</title>
<polygon fill="#ffffb3" stroke="#000000" points="1698.9399,-122 1593.0601,-122 1593.0601,-86 1698.9399,-86 1698.9399,-122"/>
<text text-anchor="middle" x="1646" y="-99.8" font-family="Times,serif" font-size="14.00" fill="#000000">AppComponent</text>
</g>
<!-- AppModule -->
<g id="node5" class="node">
<title>AppModule</title>
<polygon fill="#8dd3c7" stroke="#000000" points="942.6571,-187 939.6571,-191 918.6571,-191 915.6571,-187 859.3429,-187 859.3429,-151 942.6571,-151 942.6571,-187"/>
<text text-anchor="middle" x="901" y="-164.8" font-family="Times,serif" font-size="14.00" fill="#000000">AppModule</text>
</g>
<!-- AppComponent&#45;&gt;AppModule -->
<g id="edge1" class="edge">
<title>AppComponent&#45;&gt;AppModule</title>
<path fill="none" stroke="#000000" d="M1646,-122.2479C1646,-145.0179 1646,-181 1646,-181 1646,-181 952.9195,-181 952.9195,-181"/>
<polygon fill="#000000" stroke="#000000" points="952.9196,-177.5001 942.9195,-181 952.9195,-184.5001 952.9196,-177.5001"/>
</g>
<!-- FooterComponent -->
<g id="node2" class="node">
<title>FooterComponent</title>
<polygon fill="#ffffb3" stroke="#000000" points="1574.8809,-122 1457.1191,-122 1457.1191,-86 1574.8809,-86 1574.8809,-122"/>
<text text-anchor="middle" x="1516" y="-99.8" font-family="Times,serif" font-size="14.00" fill="#000000">FooterComponent</text>
</g>
<!-- FooterComponent&#45;&gt;AppModule -->
<g id="edge2" class="edge">
<title>FooterComponent&#45;&gt;AppModule</title>
<path fill="none" stroke="#000000" d="M1516,-122.2843C1516,-143.3211 1516,-175 1516,-175 1516,-175 952.7879,-175 952.7879,-175"/>
<polygon fill="#000000" stroke="#000000" points="952.788,-171.5001 942.7879,-175 952.7879,-178.5001 952.788,-171.5001"/>
</g>
<!-- HeaderComponent -->
<g id="node3" class="node">
<title>HeaderComponent</title>
<polygon fill="#ffffb3" stroke="#000000" points="1438.7437,-122 1317.2563,-122 1317.2563,-86 1438.7437,-86 1438.7437,-122"/>
<text text-anchor="middle" x="1378" y="-99.8" font-family="Times,serif" font-size="14.00" fill="#000000">HeaderComponent</text>
</g>
<!-- HeaderComponent&#45;&gt;AppModule -->
<g id="edge3" class="edge">
<title>HeaderComponent&#45;&gt;AppModule</title>
<path fill="none" stroke="#000000" d="M1378,-122.1061C1378,-141.3391 1378,-169 1378,-169 1378,-169 952.9125,-169 952.9125,-169"/>
<polygon fill="#000000" stroke="#000000" points="952.9125,-165.5001 942.9125,-169 952.9125,-172.5001 952.9125,-165.5001"/>
</g>
<!-- LandingComponent -->
<g id="node4" class="node">
<title>LandingComponent</title>
<polygon fill="#ffffb3" stroke="#000000" points="1298.9902,-122 1171.0098,-122 1171.0098,-86 1298.9902,-86 1298.9902,-122"/>
<text text-anchor="middle" x="1235" y="-99.8" font-family="Times,serif" font-size="14.00" fill="#000000">LandingComponent</text>
</g>
<!-- LandingComponent&#45;&gt;AppModule -->
<g id="edge4" class="edge">
<title>LandingComponent&#45;&gt;AppModule</title>
<path fill="none" stroke="#000000" d="M1235,-122.0225C1235,-139.3734 1235,-163 1235,-163 1235,-163 952.9631,-163 952.9631,-163"/>
<polygon fill="#000000" stroke="#000000" points="952.9632,-159.5001 942.9631,-163 952.9631,-166.5001 952.9632,-159.5001"/>
</g>
<!-- AppComponent  -->
<g id="node9" class="node">
<title>AppComponent </title>
<polygon fill="#80b1d3" stroke="#000000" points="955.439,-252 846.561,-252 846.561,-216 955.439,-216 955.439,-252"/>
<text text-anchor="middle" x="901" y="-229.8" font-family="Times,serif" font-size="14.00" fill="#000000">AppComponent </text>
</g>
<!-- AppModule&#45;&gt;AppComponent  -->
<g id="edge8" class="edge">
<title>AppModule&#45;&gt;AppComponent </title>
<path fill="none" stroke="#000000" stroke-dasharray="1,5" d="M901,-187.1061C901,-187.1061 901,-205.991 901,-205.991"/>
<polygon fill="#000000" stroke="#000000" points="897.5001,-205.9909 901,-215.991 904.5001,-205.991 897.5001,-205.9909"/>
</g>
<!-- AppRoutingModule -->
<g id="node6" class="node">
<title>AppRoutingModule</title>
<polygon fill="#8dd3c7" stroke="#000000" points="1147.2744,-122 1144.2744,-126 1123.2744,-126 1120.2744,-122 1018.7256,-122 1018.7256,-86 1147.2744,-86 1147.2744,-122"/>
<text text-anchor="middle" x="1083" y="-99.8" font-family="Times,serif" font-size="14.00" fill="#000000">AppRoutingModule</text>
</g>
<!-- AppRoutingModule&#45;&gt;AppModule -->
<g id="edge5" class="edge">
<title>AppRoutingModule&#45;&gt;AppModule</title>
<path fill="none" stroke="#000000" d="M1083,-122.2396C1083,-137.5706 1083,-157 1083,-157 1083,-157 952.7545,-157 952.7545,-157"/>
<polygon fill="#000000" stroke="#000000" points="952.7545,-153.5001 942.7545,-157 952.7544,-160.5001 952.7545,-153.5001"/>
</g>
<!-- AuthModule -->
<g id="node7" class="node">
<title>AuthModule</title>
<polygon fill="#8dd3c7" stroke="#000000" points="1000.5482,-122 997.5482,-126 976.5482,-126 973.5482,-122 913.4518,-122 913.4518,-86 1000.5482,-86 1000.5482,-122"/>
<text text-anchor="middle" x="957" y="-99.8" font-family="Times,serif" font-size="14.00" fill="#000000">AuthModule</text>
</g>
<!-- AuthModule&#45;&gt;AppModule -->
<g id="edge6" class="edge">
<title>AuthModule&#45;&gt;AppModule</title>
<path fill="none" stroke="#000000" d="M928.0274,-122.1061C928.0274,-122.1061 928.0274,-140.991 928.0274,-140.991"/>
<polygon fill="#000000" stroke="#000000" points="924.5274,-140.9909 928.0274,-150.991 931.5274,-140.991 924.5274,-140.9909"/>
</g>
<!-- SharedModule -->
<g id="node8" class="node">
<title>SharedModule</title>
<polygon fill="#8dd3c7" stroke="#000000" points="895.4231,-122 892.4231,-126 871.4231,-126 868.4231,-122 796.5769,-122 796.5769,-86 895.4231,-86 895.4231,-122"/>
<text text-anchor="middle" x="846" y="-99.8" font-family="Times,serif" font-size="14.00" fill="#000000">SharedModule</text>
</g>
<!-- SharedModule&#45;&gt;AppModule -->
<g id="edge7" class="edge">
<title>SharedModule&#45;&gt;AppModule</title>
<path fill="none" stroke="#000000" d="M877.1915,-122.1061C877.1915,-122.1061 877.1915,-140.991 877.1915,-140.991"/>
<polygon fill="#000000" stroke="#000000" points="873.6915,-140.9909 877.1915,-150.991 880.6915,-140.991 873.6915,-140.9909"/>
</g>
<!-- ApiRouterService -->
<g id="node10" class="node">
<title>ApiRouterService</title>
<ellipse fill="#fdb462" stroke="#000000" cx="692" cy="-104" rx="80.5162" ry="18"/>
<text text-anchor="middle" x="692" y="-99.8" font-family="Times,serif" font-size="14.00" fill="#000000">ApiRouterService</text>
</g>
<!-- ApiRouterService&#45;&gt;AppModule -->
<g id="edge9" class="edge">
<title>ApiRouterService&#45;&gt;AppModule</title>
<path fill="none" stroke="#000000" d="M692,-122.2396C692,-137.5706 692,-157 692,-157 692,-157 849.208,-157 849.208,-157"/>
<polygon fill="#000000" stroke="#000000" points="849.2081,-160.5001 859.208,-157 849.208,-153.5001 849.2081,-160.5001"/>
</g>
<!-- AuthService -->
<g id="node11" class="node">
<title>AuthService</title>
<ellipse fill="#fdb462" stroke="#000000" cx="534" cy="-104" rx="59.1083" ry="18"/>
<text text-anchor="middle" x="534" y="-99.8" font-family="Times,serif" font-size="14.00" fill="#000000">AuthService</text>
</g>
<!-- AuthService&#45;&gt;AppModule -->
<g id="edge10" class="edge">
<title>AuthService&#45;&gt;AppModule</title>
<path fill="none" stroke="#000000" d="M534,-122.0225C534,-139.3734 534,-163 534,-163 534,-163 849.2577,-163 849.2577,-163"/>
<polygon fill="#000000" stroke="#000000" points="849.2578,-166.5001 859.2577,-163 849.2577,-159.5001 849.2578,-166.5001"/>
</g>
<!-- BaseApiService -->
<g id="node12" class="node">
<title>BaseApiService</title>
<ellipse fill="#fdb462" stroke="#000000" cx="383" cy="-104" rx="73.49" ry="18"/>
<text text-anchor="middle" x="383" y="-99.8" font-family="Times,serif" font-size="14.00" fill="#000000">BaseApiService</text>
</g>
<!-- BaseApiService&#45;&gt;AppModule -->
<g id="edge11" class="edge">
<title>BaseApiService&#45;&gt;AppModule</title>
<path fill="none" stroke="#000000" d="M383,-122.1061C383,-141.3391 383,-169 383,-169 383,-169 849.0487,-169 849.0487,-169"/>
<polygon fill="#000000" stroke="#000000" points="849.0487,-172.5001 859.0487,-169 849.0486,-165.5001 849.0487,-172.5001"/>
</g>
<!-- BaseService -->
<g id="node13" class="node">
<title>BaseService</title>
<ellipse fill="#fdb462" stroke="#000000" cx="233" cy="-104" rx="58.5232" ry="18"/>
<text text-anchor="middle" x="233" y="-99.8" font-family="Times,serif" font-size="14.00" fill="#000000">BaseService</text>
</g>
<!-- BaseService&#45;&gt;AppModule -->
<g id="edge12" class="edge">
<title>BaseService&#45;&gt;AppModule</title>
<path fill="none" stroke="#000000" d="M233,-122.2843C233,-143.3211 233,-175 233,-175 233,-175 849.2136,-175 849.2136,-175"/>
<polygon fill="#000000" stroke="#000000" points="849.2136,-178.5001 859.2136,-175 849.2136,-171.5001 849.2136,-178.5001"/>
</g>
<!-- GlobalService -->
<g id="node14" class="node">
<title>GlobalService</title>
<ellipse fill="#fdb462" stroke="#000000" cx="90" cy="-104" rx="66.0492" ry="18"/>
<text text-anchor="middle" x="90" y="-99.8" font-family="Times,serif" font-size="14.00" fill="#000000">GlobalService</text>
</g>
<!-- GlobalService&#45;&gt;AppModule -->
<g id="edge13" class="edge">
<title>GlobalService&#45;&gt;AppModule</title>
<path fill="none" stroke="#000000" d="M90,-122.2479C90,-145.0179 90,-181 90,-181 90,-181 849.1049,-181 849.1049,-181"/>
<polygon fill="#000000" stroke="#000000" points="849.1049,-184.5001 859.1049,-181 849.1048,-177.5001 849.1049,-184.5001"/>
</g>
</g>
</svg>
