<?xml version="1.0" encoding="UTF-8" standalone="no"?>
<!DOCTYPE svg PUBLIC "-//W3C//DTD SVG 1.1//EN"
 "http://www.w3.org/Graphics/SVG/1.1/DTD/svg11.dtd">
<!-- Generated by graphviz version 2.40.1 (20161225.0304)
 -->
<!-- Title: dependencies Pages: 1 -->
<svg width="1246pt" height="211pt"
 viewBox="0.00 0.00 1246.00 211.00" xmlns="http://www.w3.org/2000/svg" xmlns:xlink="http://www.w3.org/1999/xlink">
<g id="graph0" class="graph" transform="scale(1 1) rotate(0) translate(4 207)">
<title>dependencies</title>
<polygon fill="#ffffff" stroke="transparent" points="-4,4 -4,-207 1242,-207 1242,4 -4,4"/>
<text text-anchor="start" x="598.0091" y="-42.4" font-family="sans-serif" font-weight="bold" font-size="14.00" fill="#000000">Legend</text>
<polygon fill="#ffffb3" stroke="transparent" points="385,-10 385,-30 405,-30 405,-10 385,-10"/>
<text text-anchor="start" x="408.629" y="-15.4" font-family="sans-serif" font-size="14.00" fill="#000000"> &#160;Declarations</text>
<polygon fill="#8dd3c7" stroke="transparent" points="498,-10 498,-30 518,-30 518,-10 498,-10"/>
<text text-anchor="start" x="521.7251" y="-15.4" font-family="sans-serif" font-size="14.00" fill="#000000"> &#160;Module</text>
<polygon fill="#80b1d3" stroke="transparent" points="584,-10 584,-30 604,-30 604,-10 584,-10"/>
<text text-anchor="start" x="607.7812" y="-15.4" font-family="sans-serif" font-size="14.00" fill="#000000"> &#160;Bootstrap</text>
<polygon fill="#fdb462" stroke="transparent" points="681,-10 681,-30 701,-30 701,-10 681,-10"/>
<text text-anchor="start" x="704.6732" y="-15.4" font-family="sans-serif" font-size="14.00" fill="#000000"> &#160;Providers</text>
<polygon fill="#fb8072" stroke="transparent" points="777,-10 777,-30 797,-30 797,-10 777,-10"/>
<text text-anchor="start" x="800.7258" y="-15.4" font-family="sans-serif" font-size="14.00" fill="#000000"> &#160;Exports</text>
<g id="clust1" class="cluster">
<title>cluster_UserProfileModule</title>
<polygon fill="none" stroke="#000000" stroke-dasharray="1,5" points="8,-70 8,-195 1230,-195 1230,-70 8,-70"/>
</g>
<g id="clust2" class="cluster">
<title>cluster_UserProfileModule_declarations</title>
<polygon fill="none" stroke="#000000" points="326,-78 326,-130 1222,-130 1222,-78 326,-78"/>
</g>
<g id="clust9" class="cluster">
<title>cluster_UserProfileModule_imports</title>
<polygon fill="none" stroke="#000000" points="16,-78 16,-130 318,-130 318,-78 16,-78"/>
</g>
<!-- ContactInfoComponent -->
<g id="node1" class="node">
<title>ContactInfoComponent</title>
<polygon fill="#ffffb3" stroke="#000000" points="1214.2007,-122 1065.7993,-122 1065.7993,-86 1214.2007,-86 1214.2007,-122"/>
<text text-anchor="middle" x="1140" y="-99.8" font-family="Times,serif" font-size="14.00" fill="#000000">ContactInfoComponent</text>
</g>
<!-- UserProfileModule -->
<g id="node7" class="node">
<title>UserProfileModule</title>
<polygon fill="#8dd3c7" stroke="#000000" points="673.0758,-187 670.0758,-191 649.0758,-191 646.0758,-187 548.9242,-187 548.9242,-151 673.0758,-151 673.0758,-187"/>
<text text-anchor="middle" x="611" y="-164.8" font-family="Times,serif" font-size="14.00" fill="#000000">UserProfileModule</text>
</g>
<!-- ContactInfoComponent&#45;&gt;UserProfileModule -->
<g id="edge1" class="edge">
<title>ContactInfoComponent&#45;&gt;UserProfileModule</title>
<path fill="none" stroke="#000000" d="M1140,-122.2921C1140,-144.2057 1140,-178 1140,-178 1140,-178 683.2386,-178 683.2386,-178"/>
<polygon fill="#000000" stroke="#000000" points="683.2386,-174.5001 673.2386,-178 683.2386,-181.5001 683.2386,-174.5001"/>
</g>
<!-- EditProfileComponent -->
<g id="node2" class="node">
<title>EditProfileComponent</title>
<polygon fill="#ffffb3" stroke="#000000" points="1048.266,-122 905.734,-122 905.734,-86 1048.266,-86 1048.266,-122"/>
<text text-anchor="middle" x="977" y="-99.8" font-family="Times,serif" font-size="14.00" fill="#000000">EditProfileComponent</text>
</g>
<!-- EditProfileComponent&#45;&gt;UserProfileModule -->
<g id="edge2" class="edge">
<title>EditProfileComponent&#45;&gt;UserProfileModule</title>
<path fill="none" stroke="#000000" d="M977,-122.1061C977,-141.3391 977,-169 977,-169 977,-169 683.0869,-169 683.0869,-169"/>
<polygon fill="#000000" stroke="#000000" points="683.0869,-165.5001 673.0869,-169 683.0869,-172.5001 683.0869,-165.5001"/>
</g>
<!-- GearComponent -->
<g id="node3" class="node">
<title>GearComponent</title>
<polygon fill="#ffffb3" stroke="#000000" points="887.0298,-122 778.9702,-122 778.9702,-86 887.0298,-86 887.0298,-122"/>
<text text-anchor="middle" x="833" y="-99.8" font-family="Times,serif" font-size="14.00" fill="#000000">GearComponent</text>
</g>
<!-- GearComponent&#45;&gt;UserProfileModule -->
<g id="edge3" class="edge">
<title>GearComponent&#45;&gt;UserProfileModule</title>
<path fill="none" stroke="#000000" d="M833,-122.027C833,-138.3976 833,-160 833,-160 833,-160 683.1346,-160 683.1346,-160"/>
<polygon fill="#000000" stroke="#000000" points="683.1346,-156.5001 673.1346,-160 683.1345,-163.5001 683.1346,-156.5001"/>
</g>
<!-- LeftSidebarComponent -->
<g id="node4" class="node">
<title>LeftSidebarComponent</title>
<polygon fill="#ffffb3" stroke="#000000" points="760.9144,-122 613.0856,-122 613.0856,-86 760.9144,-86 760.9144,-122"/>
<text text-anchor="middle" x="687" y="-99.8" font-family="Times,serif" font-size="14.00" fill="#000000">LeftSidebarComponent</text>
</g>
<!-- LeftSidebarComponent&#45;&gt;UserProfileModule -->
<g id="edge4" class="edge">
<title>LeftSidebarComponent&#45;&gt;UserProfileModule</title>
<path fill="none" stroke="#000000" d="M643.1655,-122.1061C643.1655,-122.1061 643.1655,-140.991 643.1655,-140.991"/>
<polygon fill="#000000" stroke="#000000" points="639.6656,-140.9909 643.1655,-150.991 646.6656,-140.991 639.6656,-140.9909"/>
</g>
<!-- ProfileComponent -->
<g id="node5" class="node">
<title>ProfileComponent</title>
<polygon fill="#ffffb3" stroke="#000000" points="595.9328,-122 476.0672,-122 476.0672,-86 595.9328,-86 595.9328,-122"/>
<text text-anchor="middle" x="536" y="-99.8" font-family="Times,serif" font-size="14.00" fill="#000000">ProfileComponent</text>
</g>
<!-- ProfileComponent&#45;&gt;UserProfileModule -->
<g id="edge5" class="edge">
<title>ProfileComponent&#45;&gt;UserProfileModule</title>
<path fill="none" stroke="#000000" d="M572.3391,-122.1061C572.3391,-122.1061 572.3391,-140.991 572.3391,-140.991"/>
<polygon fill="#000000" stroke="#000000" points="568.8391,-140.9909 572.3391,-150.991 575.8391,-140.991 568.8391,-140.9909"/>
</g>
<!-- ReviewComponent -->
<g id="node6" class="node">
<title>ReviewComponent</title>
<polygon fill="#ffffb3" stroke="#000000" points="458.0954,-122 333.9046,-122 333.9046,-86 458.0954,-86 458.0954,-122"/>
<text text-anchor="middle" x="396" y="-99.8" font-family="Times,serif" font-size="14.00" fill="#000000">ReviewComponent</text>
</g>
<!-- ReviewComponent&#45;&gt;UserProfileModule -->
<g id="edge6" class="edge">
<title>ReviewComponent&#45;&gt;UserProfileModule</title>
<path fill="none" stroke="#000000" d="M396,-122.027C396,-138.3976 396,-160 396,-160 396,-160 538.8131,-160 538.8131,-160"/>
<polygon fill="#000000" stroke="#000000" points="538.8131,-163.5001 548.8131,-160 538.8131,-156.5001 538.8131,-163.5001"/>
</g>
<!-- SharedModule -->
<g id="node8" class="node">
<title>SharedModule</title>
<polygon fill="#8dd3c7" stroke="#000000" points="310.4231,-122 307.4231,-126 286.4231,-126 283.4231,-122 211.5769,-122 211.5769,-86 310.4231,-86 310.4231,-122"/>
<text text-anchor="middle" x="261" y="-99.8" font-family="Times,serif" font-size="14.00" fill="#000000">SharedModule</text>
</g>
<!-- SharedModule&#45;&gt;UserProfileModule -->
<g id="edge7" class="edge">
<title>SharedModule&#45;&gt;UserProfileModule</title>
<path fill="none" stroke="#000000" d="M261,-122.1061C261,-141.3391 261,-169 261,-169 261,-169 538.8303,-169 538.8303,-169"/>
<polygon fill="#000000" stroke="#000000" points="538.8304,-172.5001 548.8303,-169 538.8303,-165.5001 538.8304,-172.5001"/>
</g>
<!-- UserProfileRoutingModule -->
<g id="node9" class="node">
<title>UserProfileRoutingModule</title>
<polygon fill="#8dd3c7" stroke="#000000" points="193.6937,-122 190.6937,-126 169.6937,-126 166.6937,-122 24.3063,-122 24.3063,-86 193.6937,-86 193.6937,-122"/>
<text text-anchor="middle" x="109" y="-99.8" font-family="Times,serif" font-size="14.00" fill="#000000">UserProfileRoutingModule</text>
</g>
<!-- UserProfileRoutingModule&#45;&gt;UserProfileModule -->
<g id="edge8" class="edge">
<title>UserProfileRoutingModule&#45;&gt;UserProfileModule</title>
<path fill="none" stroke="#000000" d="M109,-122.2921C109,-144.2057 109,-178 109,-178 109,-178 538.9415,-178 538.9415,-178"/>
<polygon fill="#000000" stroke="#000000" points="538.9415,-181.5001 548.9415,-178 538.9414,-174.5001 538.9415,-181.5001"/>
</g>
</g>
</svg>
